# xmcd CD database file
#
# Track frame offsets:
#	150
#	3885
#	30277
#	51799
#	74803
#	100128
#	122292
#	145197
#	169339
#	190806
#	211665
#	232514
#	253964
#	275513
#	297588
#
# Disc length: 4260 seconds
#
# Revision: 1
# Processed by: cddbd v1.4PL0 Copyright (c) Steve Scherf et al.
# Submitted via: CDex 1.50beta10
#
DISCID=d010a20f
DTITLE=Jamie Aebersold - Volume 54 - Maiden Voyage
DYEAR=1900
DGENRE=Jazz
TTITLE0=Tuning Notes
TTITLE1=Impressions
TTITLE2=Bb Blues
TTITLE3=Blue Bossa
TTITLE4=Summertime
TTITLE5=Watermelon Man
TTITLE6=Song for my Father
TTITLE7=Satin Doll
TTITLE8=Maiden Voyage
TTITLE9=F Blues
TTITLE10=Cantaloupe Island
TTITLE11=Footprints
TTITLE12=Doxy
TTITLE13=Autumn Leaves
TTITLE14=III/VI7/II/V7
EXTD=
EXTT0=
EXTT1=
EXTT2=
EXTT3=
EXTT4=
EXTT5=
EXTT6=
EXTT7=
EXTT8=
EXTT9=
EXTT10=
EXTT11=
EXTT12=
EXTT13=
EXTT14=
PLAYORDER=
